<?xml version="1.0" standalone="no"?><!DOCTYPE svg PUBLIC "-//W3C//DTD SVG 1.1//EN" "http://www.w3.org/Graphics/SVG/1.1/DTD/svg11.dtd"><svg t="1532332258915" class="icon" style="" viewBox="0 0 1024 1024" version="1.1" xmlns="http://www.w3.org/2000/svg" p-id="3213" xmlns:xlink="http://www.w3.org/1999/xlink" width="128" height="128"><defs><style type="text/css"></style></defs><path d="M480 128c-19.2-19.2-102.4-57.6-147.2-83.2-38.4-25.6-51.2 25.6-57.6 57.6-6.4 32-6.4 76.8 38.4 76.8h153.6c44.8 0 44.8-32 12.8-51.2z m275.2-25.6c-6.4-32-19.2-83.2-57.6-57.6-44.8 25.6-128 64-147.2 83.2-32 19.2-32 51.2 12.8 51.2h153.6c44.8 0 44.8-44.8 38.4-76.8zM19.2 294.4v96c0 38.4 12.8 57.6 57.6 57.6h358.4V243.2H76.8c-44.8 0-57.6 19.2-57.6 51.2z m985.6 6.4c0-32-12.8-51.2-64-51.2H588.8V448h358.4c51.2 0 57.6-19.2 57.6-51.2V300.8zM57.6 902.4c0 76.8 44.8 121.6 140.8 121.6h236.8V524.8H57.6v377.6z m531.2-377.6V1024h230.4c96 0 134.4-44.8 134.4-121.6V524.8H588.8z"  p-id="3214"></path></svg>